<mxfile host="app.diagrams.net" modified="2022-06-09T11:44:55.505Z" agent="5.0 (Macintosh; Intel Mac OS X 10_15_7) AppleWebKit/537.36 (KHTML, like Gecko) Chrome/102.0.5005.61 Safari/537.36" etag="k3MlY1ZxmiTaWbE46oJB" version="19.0.3" type="github">
  <diagram id="MpzwZItdDH28YRpMNwo7" name="Page-1">
    <mxGraphModel dx="2863" dy="1318" grid="1" gridSize="10" guides="1" tooltips="1" connect="1" arrows="1" fold="1" page="1" pageScale="1" pageWidth="827" pageHeight="1169" math="0" shadow="0">
      <root>
        <mxCell id="0" />
        <mxCell id="1" parent="0" />
        <mxCell id="GIJSApWMgaG8Qd5USU7y-19" value="" style="edgeStyle=orthogonalEdgeStyle;rounded=0;orthogonalLoop=1;jettySize=auto;html=1;" edge="1" parent="1" source="GIJSApWMgaG8Qd5USU7y-2" target="GIJSApWMgaG8Qd5USU7y-5">
          <mxGeometry relative="1" as="geometry" />
        </mxCell>
        <mxCell id="GIJSApWMgaG8Qd5USU7y-2" value="&lt;div style=&quot;&quot;&gt;&lt;span style=&quot;background-color: initial;&quot;&gt;Нативный ИБ&lt;/span&gt;&lt;/div&gt;&lt;div style=&quot;text-align: left;&quot;&gt;&lt;span style=&quot;background-color: initial;&quot;&gt;&lt;br&gt;&lt;/span&gt;&lt;/div&gt;&lt;div style=&quot;text-align: left;&quot;&gt;&lt;span style=&quot;background-color: initial;&quot;&gt;&amp;nbsp;PO - Дмитрий Мухортин&lt;/span&gt;&lt;/div&gt;&lt;div style=&quot;text-align: left;&quot;&gt;&lt;span style=&quot;background-color: initial;&quot;&gt;&amp;nbsp;TL - Игорь Попов&lt;/span&gt;&lt;/div&gt;&lt;div style=&quot;text-align: left;&quot;&gt;&amp;nbsp;URL -&amp;nbsp;http://gitlab.dev.gazprombank.ru/frontend-&amp;nbsp; department/gpb-internet-bank&lt;/div&gt;" style="rounded=1;whiteSpace=wrap;html=1;fillColor=#dae8fc;strokeColor=#6c8ebf;" vertex="1" parent="1">
          <mxGeometry x="460" y="90" width="290" height="90" as="geometry" />
        </mxCell>
        <mxCell id="GIJSApWMgaG8Qd5USU7y-3" value="" style="endArrow=classic;html=1;rounded=0;exitX=1;exitY=0.5;exitDx=0;exitDy=0;" edge="1" parent="1" source="GIJSApWMgaG8Qd5USU7y-17">
          <mxGeometry width="50" height="50" relative="1" as="geometry">
            <mxPoint x="450" y="40" as="sourcePoint" />
            <mxPoint x="600" y="90" as="targetPoint" />
            <Array as="points">
              <mxPoint x="600" y="40" />
            </Array>
          </mxGeometry>
        </mxCell>
        <mxCell id="GIJSApWMgaG8Qd5USU7y-5" value="Команда&lt;br&gt;&lt;br&gt;Илья Сигидин&lt;br&gt;Павел Галькевич" style="rounded=1;whiteSpace=wrap;html=1;fillColor=#d5e8d4;strokeColor=#82b366;" vertex="1" parent="1">
          <mxGeometry x="820" y="105" width="220" height="60" as="geometry" />
        </mxCell>
        <mxCell id="GIJSApWMgaG8Qd5USU7y-20" value="" style="edgeStyle=orthogonalEdgeStyle;rounded=0;orthogonalLoop=1;jettySize=auto;html=1;" edge="1" parent="1" source="GIJSApWMgaG8Qd5USU7y-6" target="GIJSApWMgaG8Qd5USU7y-7">
          <mxGeometry relative="1" as="geometry" />
        </mxCell>
        <mxCell id="GIJSApWMgaG8Qd5USU7y-6" value="Команда &quot;История операций&quot;&lt;br&gt;&lt;br&gt;" style="rounded=1;whiteSpace=wrap;html=1;fillColor=#dae8fc;strokeColor=#6c8ebf;" vertex="1" parent="1">
          <mxGeometry x="460" y="230" width="290" height="60" as="geometry" />
        </mxCell>
        <mxCell id="GIJSApWMgaG8Qd5USU7y-7" value="Команда&lt;br&gt;&lt;br&gt;Мемет Белялов" style="rounded=1;whiteSpace=wrap;html=1;fillColor=#d5e8d4;strokeColor=#82b366;" vertex="1" parent="1">
          <mxGeometry x="820" y="230" width="220" height="60" as="geometry" />
        </mxCell>
        <mxCell id="GIJSApWMgaG8Qd5USU7y-8" value="" style="endArrow=classic;html=1;rounded=0;exitX=0;exitY=0.5;exitDx=0;exitDy=0;entryX=0;entryY=0.5;entryDx=0;entryDy=0;" edge="1" parent="1" source="GIJSApWMgaG8Qd5USU7y-2" target="GIJSApWMgaG8Qd5USU7y-6">
          <mxGeometry width="50" height="50" relative="1" as="geometry">
            <mxPoint x="690" y="270" as="sourcePoint" />
            <mxPoint x="740" y="220" as="targetPoint" />
            <Array as="points">
              <mxPoint x="400" y="135" />
              <mxPoint x="400" y="260" />
            </Array>
          </mxGeometry>
        </mxCell>
        <mxCell id="GIJSApWMgaG8Qd5USU7y-21" value="" style="edgeStyle=orthogonalEdgeStyle;rounded=0;orthogonalLoop=1;jettySize=auto;html=1;" edge="1" parent="1" source="GIJSApWMgaG8Qd5USU7y-9" target="GIJSApWMgaG8Qd5USU7y-10">
          <mxGeometry relative="1" as="geometry" />
        </mxCell>
        <mxCell id="GIJSApWMgaG8Qd5USU7y-9" value="Команда &quot;Вход и Профиль&quot;&lt;br&gt;" style="rounded=1;whiteSpace=wrap;html=1;fillColor=#dae8fc;strokeColor=#6c8ebf;" vertex="1" parent="1">
          <mxGeometry x="460" y="330" width="290" height="60" as="geometry" />
        </mxCell>
        <mxCell id="GIJSApWMgaG8Qd5USU7y-10" value="Команда&lt;br&gt;&lt;br&gt;Владимир Артюхов&lt;br&gt;Алексей Кононов" style="rounded=1;whiteSpace=wrap;html=1;fillColor=#d5e8d4;strokeColor=#82b366;" vertex="1" parent="1">
          <mxGeometry x="821" y="330" width="220" height="60" as="geometry" />
        </mxCell>
        <mxCell id="GIJSApWMgaG8Qd5USU7y-11" value="" style="endArrow=classic;html=1;rounded=0;entryX=0;entryY=0.5;entryDx=0;entryDy=0;" edge="1" parent="1" target="GIJSApWMgaG8Qd5USU7y-9">
          <mxGeometry width="50" height="50" relative="1" as="geometry">
            <mxPoint x="400" y="260" as="sourcePoint" />
            <mxPoint x="670" y="240" as="targetPoint" />
            <Array as="points">
              <mxPoint x="400" y="360" />
            </Array>
          </mxGeometry>
        </mxCell>
        <mxCell id="GIJSApWMgaG8Qd5USU7y-12" value="Команда &quot;Витрина продуктов&quot;&lt;br&gt;&lt;div style=&quot;&quot;&gt;&lt;br&gt;&lt;/div&gt;&lt;div style=&quot;text-align: left;&quot;&gt;&lt;span style=&quot;background-color: initial;&quot;&gt;PO - Алексей Шевчук&lt;/span&gt;&lt;/div&gt;&lt;div style=&quot;text-align: left;&quot;&gt;&lt;span style=&quot;background-color: initial;&quot;&gt;TL - Артем Журавский&lt;/span&gt;&lt;/div&gt;" style="rounded=1;whiteSpace=wrap;html=1;fillColor=#dae8fc;strokeColor=#6c8ebf;" vertex="1" parent="1">
          <mxGeometry x="-300" y="105" width="290" height="60" as="geometry" />
        </mxCell>
        <mxCell id="GIJSApWMgaG8Qd5USU7y-13" value="Команда&lt;br&gt;&lt;br&gt;Артем Мирочник" style="rounded=1;whiteSpace=wrap;html=1;fillColor=#d5e8d4;strokeColor=#82b366;" vertex="1" parent="1">
          <mxGeometry x="70" y="105" width="220" height="60" as="geometry" />
        </mxCell>
        <mxCell id="GIJSApWMgaG8Qd5USU7y-14" value="" style="endArrow=classic;html=1;rounded=0;exitX=1;exitY=0.5;exitDx=0;exitDy=0;entryX=0;entryY=0.5;entryDx=0;entryDy=0;" edge="1" parent="1" source="GIJSApWMgaG8Qd5USU7y-12" target="GIJSApWMgaG8Qd5USU7y-13">
          <mxGeometry width="50" height="50" relative="1" as="geometry">
            <mxPoint x="70" y="230" as="sourcePoint" />
            <mxPoint x="120" y="180" as="targetPoint" />
          </mxGeometry>
        </mxCell>
        <mxCell id="GIJSApWMgaG8Qd5USU7y-23" value="" style="edgeStyle=orthogonalEdgeStyle;rounded=0;orthogonalLoop=1;jettySize=auto;html=1;entryX=0.5;entryY=0;entryDx=0;entryDy=0;" edge="1" parent="1" source="GIJSApWMgaG8Qd5USU7y-17" target="GIJSApWMgaG8Qd5USU7y-12">
          <mxGeometry relative="1" as="geometry">
            <mxPoint x="-160" y="100" as="targetPoint" />
          </mxGeometry>
        </mxCell>
        <mxCell id="GIJSApWMgaG8Qd5USU7y-17" value="Структура ИБ" style="ellipse;whiteSpace=wrap;html=1;fillColor=#fff2cc;strokeColor=#d6b656;" vertex="1" parent="1">
          <mxGeometry x="160" y="20" width="130" height="40" as="geometry" />
        </mxCell>
      </root>
    </mxGraphModel>
  </diagram>
</mxfile>
